<?xml version="1.0" encoding="UTF-8" standalone="no"?>
<!-- Created with Inkscape (http://www.inkscape.org/) -->

<svg
   xmlns:dc="http://purl.org/dc/elements/1.1/"
   xmlns:cc="http://creativecommons.org/ns#"
   xmlns:rdf="http://www.w3.org/1999/02/22-rdf-syntax-ns#"
   xmlns:svg="http://www.w3.org/2000/svg"
   xmlns="http://www.w3.org/2000/svg"
   xmlns:sodipodi="http://sodipodi.sourceforge.net/DTD/sodipodi-0.dtd"
   xmlns:inkscape="http://www.inkscape.org/namespaces/inkscape"
   width="210mm"
   height="297mm"
   viewBox="0 0 210 297"
   version="1.1"
   id="svg3710"
   inkscape:version="0.48.4 r9939"
   sodipodi:docname="slide.svg">
  <defs
     id="defs3704" />
  <sodipodi:namedview
     id="base"
     pagecolor="#ffffff"
     bordercolor="#666666"
     borderopacity="1.0"
     inkscape:pageopacity="0.0"
     inkscape:pageshadow="2"
     inkscape:zoom="0.49497475"
     inkscape:cx="655.05239"
     inkscape:cy="326.68506"
     inkscape:document-units="mm"
     inkscape:current-layer="layer1"
     showgrid="false"
     inkscape:window-width="1600"
     inkscape:window-height="838"
     inkscape:window-x="-8"
     inkscape:window-y="-8"
     inkscape:window-maximized="1" />
  <metadata
     id="metadata3707">
    <rdf:RDF>
      <cc:Work
         rdf:about="">
        <dc:format>image/svg+xml</dc:format>
        <dc:type
           rdf:resource="http://purl.org/dc/dcmitype/StillImage" />
        <dc:title></dc:title>
      </cc:Work>
    </rdf:RDF>
  </metadata>
  <g
     inkscape:label="Layer 1"
     inkscape:groupmode="layer"
     id="layer1">
    <path
       id="path3001"
       style="fill:none;stroke:#000000;stroke-width:1.32291662999999990;stroke-linecap:round;stroke-linejoin:round;stroke-miterlimit:4;stroke-opacity:1;stroke-dasharray:none;stroke-dashoffset:0"
       d="m 51.63952,93.14293 c -7.0433,0.13602 -15.55206,-0.073 -15.55206,-0.073 0,0 24.92104,-39.241487 35.22065,-40.186352 9.58209,-0.879044 43.2276,41.261482 43.2276,41.261482 L 98.84177,93.88857 c -1.99559,44.18478 1.83582,59.46748 0.55918,78.75809 -10.27621,-0.63141 -41.24688,0.55071 -46.4382,1.00202 0.0704,-15.85732 0.09822,-14.3393 -1.32323,-80.50575 z"
       inkscape:connector-curvature="0"
       sodipodi:nodetypes="ccsccccc"
       inkscape:export-xdpi="170.81"
       inkscape:export-ydpi="170.81"
       inkscape:export-filename="C:\Users\Adam\Desktop\slide.png" />
    <path
       inkscape:export-filename="C:\Users\Adam\Desktop\slide.png"
       inkscape:export-ydpi="170.81"
       inkscape:export-xdpi="170.81"
       sodipodi:nodetypes="ccsccccc"
       inkscape:connector-curvature="0"
       d="m 106.37632,184.69151 c -7.0433,-0.13602 -15.55206,0.073 -15.55206,0.073 0,0 24.92104,39.24149 35.22065,40.18636 9.58209,0.87904 43.2276,-41.26149 43.2276,-41.26149 l -15.69394,0.25649 c -1.99559,-44.18478 1.83582,-59.46748 0.55918,-78.75809 -10.27621,0.63141 -41.24688,-0.55071 -46.4382,-1.00202 0.0704,15.85732 0.0982,14.3393 -1.32323,80.50575 z"
       style="fill:none;stroke:#000000;stroke-width:1.32291662999999990;stroke-linecap:round;stroke-linejoin:round;stroke-miterlimit:4;stroke-opacity:1;stroke-dasharray:none;stroke-dashoffset:0"
       id="path3002" />
  </g>
</svg>
